<?xml version="1.0" encoding="UTF-8"?>
<svg xmlns="http://www.w3.org/2000/svg" viewBox="0 0 120 360" fill-rule="evenodd">
<path d="M 21 95 L 20 96 L 17 96 L 16 97 L 15 97 L 14 98 L 13 98 L 12 99 L 11 99 L 8 102 L 7 102 L 6 103 L 6 104 L 3 107 L 3 108 L 2 109 L 2 110 L 1 111 L 1 114 L 0 115 L 0 244 L 1 245 L 1 247 L 2 248 L 2 250 L 4 252 L 4 253 L 7 256 L 7 257 L 8 257 L 11 260 L 12 260 L 13 261 L 14 261 L 15 262 L 17 262 L 18 263 L 21 263 L 22 264 L 88 264 L 89 263 L 93 263 L 94 262 L 96 262 L 97 261 L 98 261 L 100 259 L 101 259 L 107 253 L 107 252 L 109 250 L 109 248 L 110 247 L 110 245 L 111 244 L 111 197 L 110 196 L 109 196 L 107 198 L 106 198 L 104 200 L 103 200 L 102 201 L 101 201 L 99 203 L 98 203 L 97 204 L 96 204 L 94 206 L 93 206 L 92 207 L 91 207 L 88 210 L 88 211 L 87 212 L 87 238 L 85 240 L 25 240 L 24 239 L 24 238 L 23 237 L 23 121 L 25 119 L 86 119 L 87 120 L 87 152 L 83 156 L 82 156 L 81 157 L 80 157 L 78 159 L 77 159 L 75 161 L 74 161 L 71 164 L 70 164 L 68 166 L 67 166 L 65 168 L 64 168 L 63 169 L 62 169 L 61 170 L 60 170 L 59 169 L 59 168 L 56 165 L 56 164 L 55 163 L 53 163 L 52 164 L 52 166 L 51 167 L 51 168 L 50 169 L 50 170 L 49 171 L 49 173 L 48 174 L 48 175 L 47 176 L 47 177 L 46 178 L 46 179 L 45 180 L 45 182 L 44 183 L 44 184 L 43 185 L 43 186 L 42 187 L 42 189 L 40 191 L 40 193 L 39 194 L 39 195 L 38 196 L 38 198 L 78 198 L 78 196 L 76 194 L 76 193 L 75 192 L 75 191 L 74 190 L 75 189 L 76 189 L 77 188 L 78 188 L 81 185 L 82 185 L 84 183 L 85 183 L 87 181 L 88 181 L 90 179 L 91 179 L 94 176 L 95 176 L 96 175 L 97 175 L 99 173 L 100 173 L 102 171 L 103 171 L 105 169 L 106 169 L 108 167 L 109 167 L 110 166 L 110 165 L 111 164 L 111 115 L 110 114 L 110 112 L 109 111 L 109 109 L 107 107 L 107 106 L 104 103 L 104 102 L 103 102 L 100 99 L 99 99 L 98 98 L 97 98 L 96 97 L 95 97 L 94 96 L 90 96 L 89 95 Z" fill="#df2f36"/>
</svg>